<?xml version="1.0" encoding="UTF-8" standalone="no"?>
<svg
   width="500"
   zoomAndPan="magnify"
   viewBox="0 0 375 179.24999"
   height="239"
   preserveAspectRatio="xMidYMid"
   version="1.0"
   id="svg51"
   sodipodi:docname="INSPiRA - Final (1000x1000).svg"
   inkscape:version="1.3 (0e150ed, 2023-07-21)"
   xmlns:inkscape="http://www.inkscape.org/namespaces/inkscape"
   xmlns:sodipodi="http://sodipodi.sourceforge.net/DTD/sodipodi-0.dtd"
   xmlns="http://www.w3.org/2000/svg"
   xmlns:svg="http://www.w3.org/2000/svg">
  <sodipodi:namedview
     id="namedview51"
     pagecolor="#ffffff"
     bordercolor="#000000"
     borderopacity="0.25"
     inkscape:showpageshadow="2"
     inkscape:pageopacity="0.0"
     inkscape:pagecheckerboard="0"
     inkscape:deskcolor="#d1d1d1"
     inkscape:zoom="0.78883852"
     inkscape:cx="128.67019"
     inkscape:cy="-51.975149"
     inkscape:window-width="1760"
     inkscape:window-height="871"
     inkscape:window-x="2378"
     inkscape:window-y="114"
     inkscape:window-maximized="0"
     inkscape:current-layer="svg51" />
  <defs
     id="defs4">
    <g
       id="g1" />
    <clipPath
       id="59f8e34e1a">
      <path
         d="m 216,149 h 14 v 5.53906 h -14 z m 0,0"
         clip-rule="nonzero"
         id="path1" />
    </clipPath>
    <clipPath
       id="2cf93e47e3">
      <path
         d="m 211,109.53906 h 27.97266 V 144 H 211 Z m 0,0"
         clip-rule="nonzero"
         id="path2" />
    </clipPath>
    <clipPath
       id="9ecc68c597">
      <path
         d="M 208.22266,111 H 232 v 22 h -23.77734 z m 0,0"
         clip-rule="nonzero"
         id="path3" />
    </clipPath>
    <clipPath
       id="3a2f7e36a5">
      <path
         d="m 217.95703,159.17578 h 9.375 v 45.50781 h -9.375 z m 0,0"
         clip-rule="nonzero"
         id="path4" />
    </clipPath>
  </defs>
  <g
     fill="#5d3a6d"
     fill-opacity="1"
     id="g7"
     transform="translate(-3.216591,-95.693583)">
    <g
       transform="translate(25.076567,204.67915)"
       id="g6">
      <g
         id="g5">
        <path
           d="M 6.921875,-51.5625 H 16.5 V 0 H 6.921875 Z m 0,0"
           id="path5" />
      </g>
    </g>
  </g>
  <g
     fill="#5d3a6d"
     fill-opacity="1"
     id="g10"
     transform="translate(-3.216591,-95.693583)">
    <g
       transform="translate(48.578544,204.67915)"
       id="g9">
      <g
         id="g8">
        <path
           d="M 52.75,-51.5625 V 0 h -7.890625 l -28.4375,-34.921875 V 0 h -9.5 V -51.5625 H 14.8125 L 43.25,-16.65625 V -51.5625 Z m 0,0"
           id="path7" />
      </g>
    </g>
  </g>
  <g
     fill="#5d3a6d"
     fill-opacity="1"
     id="g13"
     transform="translate(-3.216591,-95.693583)">
    <g
       transform="translate(108.25442,204.67915)"
       id="g12">
      <g
         id="g11">
        <path
           d="m 22.90625,0.734375 c -3.980469,0 -7.824219,-0.5625 -11.53125,-1.6875 -3.710938,-1.132813 -6.640625,-2.632813 -8.796875,-4.5 l 3.3125,-7.4375 c 2.113281,1.667969 4.703125,3.03125 7.765625,4.09375 3.070312,1.054687 6.15625,1.578125 9.25,1.578125 3.832031,0 6.691406,-0.613281 8.578125,-1.84375 1.894531,-1.226562 2.84375,-2.847656 2.84375,-4.859375 0,-1.476563 -0.53125,-2.691406 -1.59375,-3.640625 -1.054687,-0.957031 -2.390625,-1.707031 -4.015625,-2.25 -1.617188,-0.539062 -3.824219,-1.15625 -6.625,-1.84375 -3.929688,-0.9375 -7.105469,-1.867188 -9.53125,-2.796875 -2.429688,-0.9375 -4.515625,-2.398437 -6.265625,-4.390625 -1.742187,-1.988281 -2.609375,-4.675781 -2.609375,-8.0625 0,-2.851562 0.769531,-5.445312 2.3125,-7.78125 1.550781,-2.332031 3.882812,-4.1875 7,-5.5625 3.125,-1.375 6.941406,-2.0625 11.453125,-2.0625 3.144531,0 6.238281,0.398438 9.28125,1.1875 3.050781,0.78125 5.679687,1.914062 7.890625,3.390625 l -3.015625,7.4375 C 36.347656,-41.617188 33.988281,-42.625 31.53125,-43.3125 29.070312,-44 26.691406,-44.34375 24.390625,-44.34375 c -3.78125,0 -6.59375,0.640625 -8.4375,1.921875 -1.84375,1.273437 -2.765625,2.960937 -2.765625,5.0625 0,1.480469 0.523438,2.6875 1.578125,3.625 1.0625,0.929687 2.398437,1.664063 4.015625,2.203125 1.625,0.542969 3.835938,1.15625 6.640625,1.84375 3.820313,0.886719 6.960937,1.808594 9.421875,2.765625 2.457031,0.960937 4.554688,2.421875 6.296875,4.390625 1.75,1.960938 2.625,4.605469 2.625,7.9375 0,2.855469 -0.777344,5.4375 -2.328125,7.75 -1.542969,2.304688 -3.886719,4.140625 -7.03125,5.515625 -3.148438,1.375 -6.980469,2.0625 -11.5,2.0625 z m 0,0"
           id="path10" />
      </g>
    </g>
  </g>
  <g
     fill="#5d3a6d"
     fill-opacity="1"
     id="g16"
     transform="translate(-3.216591,-95.693583)">
    <g
       transform="translate(154.59533,204.67915)"
       id="g15">
      <g
         id="g14">
        <path
           d="m 28.140625,-51.5625 c 4.46875,0 8.359375,0.734375 11.671875,2.203125 3.320312,1.46875 5.863281,3.578125 7.625,6.328125 1.769531,2.75 2.65625,6.023438 2.65625,9.8125 0,3.730469 -0.886719,6.984375 -2.65625,9.765625 -1.761719,2.773437 -4.304688,4.898437 -7.625,6.375 C 36.5,-15.609375 32.609375,-14.875 28.140625,-14.875 H 16.5 V 0 H 6.921875 v -51.5625 z m -0.4375,28.578125 c 4.175781,0 7.34375,-0.882813 9.5,-2.65625 2.164063,-1.769531 3.25,-4.296875 3.25,-7.578125 0,-3.289062 -1.085937,-5.820312 -3.25,-7.59375 -2.15625,-1.769531 -5.324219,-2.65625 -9.5,-2.65625 H 16.5 v 20.484375 z m 0,0"
           id="path13" />
      </g>
    </g>
  </g>
  <g
     fill="#5d3a6d"
     fill-opacity="1"
     id="g19"
     transform="translate(-3.216591,-95.693583)">
    <g
       transform="translate(234.71873,204.67915)"
       id="g18">
      <g
         id="g17">
        <path
           d="M 40.671875,0 30.125,-15.109375 c -0.4375,0.05469 -1.101562,0.07813 -1.984375,0.07813 H 16.5 V 0 H 6.921875 v -51.5625 h 21.21875 c 4.46875,0 8.359375,0.734375 11.671875,2.203125 3.320312,1.46875 5.863281,3.578125 7.625,6.328125 1.769531,2.75 2.65625,6.023438 2.65625,9.8125 0,3.875 -0.949219,7.214844 -2.84375,10.015625 -1.886719,2.804687 -4.59375,4.890625 -8.125,6.265625 L 50.984375,0 Z m -0.21875,-33.21875 c 0,-3.289062 -1.085937,-5.820312 -3.25,-7.59375 -2.15625,-1.769531 -5.324219,-2.65625 -9.5,-2.65625 H 16.5 v 20.5625 h 11.203125 c 4.175781,0 7.34375,-0.894531 9.5,-2.6875 2.164063,-1.800781 3.25,-4.34375 3.25,-7.625 z m 0,0"
           id="path16" />
      </g>
    </g>
  </g>
  <g
     fill="#5d3a6d"
     fill-opacity="1"
     id="g22"
     transform="translate(-3.216591,-95.693583)">
    <g
       transform="translate(288.57437,204.67915)"
       id="g21">
      <g
         id="g20">
        <path
           d="M 40.375,-11.9375 H 14.59375 L 9.5,0 h -9.875 l 23.21875,-51.5625 h 9.421875 L 55.546875,0 H 45.53125 Z M 37.203125,-19.453125 27.484375,-42 l -9.65625,22.546875 z m 0,0"
           id="path19" />
      </g>
    </g>
  </g>
  <g
     fill="#ffbd59"
     fill-opacity="1"
     id="g25"
     transform="translate(-3.216591,-95.693583)">
    <g
       transform="translate(134.20486,238.9907)"
       id="g24">
      <g
         id="g23">
        <path
           d="M 6.140625,0.203125 C 5.066406,0.203125 4.035156,0.0507812 3.046875,-0.25 2.054688,-0.550781 1.269531,-0.953125 0.6875,-1.453125 l 0.890625,-2 c 0.5625,0.449219 1.253906,0.8125 2.078125,1.09375 0.820312,0.28125 1.648438,0.421875 2.484375,0.421875 1.019531,0 1.785156,-0.160156 2.296875,-0.484375 0.507812,-0.332031 0.765625,-0.769531 0.765625,-1.3125 0,-0.394531 -0.148437,-0.71875 -0.4375,-0.96875 C 8.484375,-4.960938 8.125,-5.164062 7.6875,-5.3125 7.257812,-5.457031 6.671875,-5.617188 5.921875,-5.796875 c -1.054687,-0.25 -1.90625,-0.5 -2.5625,-0.75 C 2.710938,-6.796875 2.15625,-7.1875 1.6875,-7.71875 1.21875,-8.257812 0.984375,-8.984375 0.984375,-9.890625 c 0,-0.757813 0.207031,-1.453125 0.625,-2.078125 0.414063,-0.625 1.039063,-1.117188 1.875,-1.484375 0.832031,-0.375 1.851563,-0.5625 3.0625,-0.5625 0.84375,0 1.671875,0.109375 2.484375,0.328125 0.820312,0.210938 1.53125,0.511719 2.125,0.90625 l -0.8125,1.984375 C 9.738281,-11.148438 9.101562,-11.414062 8.4375,-11.59375 7.78125,-11.78125 7.144531,-11.875 6.53125,-11.875 c -1.011719,0 -1.765625,0.171875 -2.265625,0.515625 C 3.773438,-11.023438 3.53125,-10.570312 3.53125,-10 c 0,0.398438 0.140625,0.71875 0.421875,0.96875 0.28125,0.25 0.640625,0.449219 1.078125,0.59375 0.4375,0.136719 1.03125,0.296875 1.78125,0.484375 1.019531,0.242187 1.859375,0.492187 2.515625,0.75 0.664063,0.25 1.226563,0.640625 1.6875,1.171875 0.46875,0.523438 0.703125,1.230469 0.703125,2.125 0,0.761719 -0.210938,1.453125 -0.625,2.078125 C 10.6875,-1.210938 10.0625,-0.71875 9.21875,-0.34375 8.375,0.0195312 7.347656,0.203125 6.140625,0.203125 Z m 0,0"
           id="path22" />
      </g>
    </g>
  </g>
  <g
     fill="#ffbd59"
     fill-opacity="1"
     id="g28"
     transform="translate(-3.216591,-95.693583)">
    <g
       transform="translate(148.81011,238.9907)"
       id="g27">
      <g
         id="g26">
        <path
           d="M 7.8125,-4.875 V 0 H 5.25 V -4.828125 L -0.171875,-13.8125 H 2.5625 l 4.046875,6.734375 4.09375,-6.734375 h 2.515625 z m 0,0"
           id="path25" />
      </g>
    </g>
  </g>
  <g
     fill="#ffbd59"
     fill-opacity="1"
     id="g31"
     transform="translate(-3.216591,-95.693583)">
    <g
       transform="translate(164.04694,238.9907)"
       id="g30">
      <g
         id="g29">
        <path
           d="M 6.140625,0.203125 C 5.066406,0.203125 4.035156,0.0507812 3.046875,-0.25 2.054688,-0.550781 1.269531,-0.953125 0.6875,-1.453125 l 0.890625,-2 c 0.5625,0.449219 1.253906,0.8125 2.078125,1.09375 0.820312,0.28125 1.648438,0.421875 2.484375,0.421875 1.019531,0 1.785156,-0.160156 2.296875,-0.484375 0.507812,-0.332031 0.765625,-0.769531 0.765625,-1.3125 0,-0.394531 -0.148437,-0.71875 -0.4375,-0.96875 C 8.484375,-4.960938 8.125,-5.164062 7.6875,-5.3125 7.257812,-5.457031 6.671875,-5.617188 5.921875,-5.796875 c -1.054687,-0.25 -1.90625,-0.5 -2.5625,-0.75 C 2.710938,-6.796875 2.15625,-7.1875 1.6875,-7.71875 1.21875,-8.257812 0.984375,-8.984375 0.984375,-9.890625 c 0,-0.757813 0.207031,-1.453125 0.625,-2.078125 0.414063,-0.625 1.039063,-1.117188 1.875,-1.484375 0.832031,-0.375 1.851563,-0.5625 3.0625,-0.5625 0.84375,0 1.671875,0.109375 2.484375,0.328125 0.820312,0.210938 1.53125,0.511719 2.125,0.90625 l -0.8125,1.984375 C 9.738281,-11.148438 9.101562,-11.414062 8.4375,-11.59375 7.78125,-11.78125 7.144531,-11.875 6.53125,-11.875 c -1.011719,0 -1.765625,0.171875 -2.265625,0.515625 C 3.773438,-11.023438 3.53125,-10.570312 3.53125,-10 c 0,0.398438 0.140625,0.71875 0.421875,0.96875 0.28125,0.25 0.640625,0.449219 1.078125,0.59375 0.4375,0.136719 1.03125,0.296875 1.78125,0.484375 1.019531,0.242187 1.859375,0.492187 2.515625,0.75 0.664063,0.25 1.226563,0.640625 1.6875,1.171875 0.46875,0.523438 0.703125,1.230469 0.703125,2.125 0,0.761719 -0.210938,1.453125 -0.625,2.078125 C 10.6875,-1.210938 10.0625,-0.71875 9.21875,-0.34375 8.375,0.0195312 7.347656,0.203125 6.140625,0.203125 Z m 0,0"
           id="path28" />
      </g>
    </g>
  </g>
  <g
     fill="#ffbd59"
     fill-opacity="1"
     id="g34"
     transform="translate(-3.216591,-95.693583)">
    <g
       transform="translate(178.65219,238.9907)"
       id="g33">
      <g
         id="g32">
        <path
           d="M 4.65625,-11.640625 H 0.078125 V -13.8125 h 11.71875 v 2.171875 H 7.21875 V 0 h -2.5625 z m 0,0"
           id="path31" />
      </g>
    </g>
  </g>
  <g
     fill="#ffbd59"
     fill-opacity="1"
     id="g37"
     transform="translate(-3.216591,-95.693583)">
    <g
       transform="translate(192.72455,238.9907)"
       id="g36">
      <g
         id="g35">
        <path
           d="M 12.21875,-2.15625 V 0 H 1.859375 V -13.8125 H 11.9375 v 2.15625 H 4.421875 v 3.578125 h 6.671875 v 2.125 H 4.421875 v 3.796875 z m 0,0"
           id="path34" />
      </g>
    </g>
  </g>
  <g
     fill="#ffbd59"
     fill-opacity="1"
     id="g40"
     transform="translate(-3.216591,-95.693583)">
    <g
       transform="translate(208.13901,238.9907)"
       id="g39">
      <g
         id="g38">
        <path
           d="M 14.546875,0 14.53125,-9.15625 9.984375,-1.578125 H 8.84375 L 4.296875,-9.03125 V 0 h -2.4375 V -13.8125 H 3.96875 l 5.484375,9.15625 5.390625,-9.15625 h 2.109375 L 16.96875,0 Z m 0,0"
           id="path37" />
      </g>
    </g>
  </g>
  <g
     fill="#ffbd59"
     fill-opacity="1"
     id="g43"
     transform="translate(-3.216591,-95.693583)">
    <g
       transform="translate(229.17846,238.9907)"
       id="g42">
      <g
         id="g41">
        <path
           d="M 6.140625,0.203125 C 5.066406,0.203125 4.035156,0.0507812 3.046875,-0.25 2.054688,-0.550781 1.269531,-0.953125 0.6875,-1.453125 l 0.890625,-2 c 0.5625,0.449219 1.253906,0.8125 2.078125,1.09375 0.820312,0.28125 1.648438,0.421875 2.484375,0.421875 1.019531,0 1.785156,-0.160156 2.296875,-0.484375 0.507812,-0.332031 0.765625,-0.769531 0.765625,-1.3125 0,-0.394531 -0.148437,-0.71875 -0.4375,-0.96875 C 8.484375,-4.960938 8.125,-5.164062 7.6875,-5.3125 7.257812,-5.457031 6.671875,-5.617188 5.921875,-5.796875 c -1.054687,-0.25 -1.90625,-0.5 -2.5625,-0.75 C 2.710938,-6.796875 2.15625,-7.1875 1.6875,-7.71875 1.21875,-8.257812 0.984375,-8.984375 0.984375,-9.890625 c 0,-0.757813 0.207031,-1.453125 0.625,-2.078125 0.414063,-0.625 1.039063,-1.117188 1.875,-1.484375 0.832031,-0.375 1.851563,-0.5625 3.0625,-0.5625 0.84375,0 1.671875,0.109375 2.484375,0.328125 0.820312,0.210938 1.53125,0.511719 2.125,0.90625 l -0.8125,1.984375 C 9.738281,-11.148438 9.101562,-11.414062 8.4375,-11.59375 7.78125,-11.78125 7.144531,-11.875 6.53125,-11.875 c -1.011719,0 -1.765625,0.171875 -2.265625,0.515625 C 3.773438,-11.023438 3.53125,-10.570312 3.53125,-10 c 0,0.398438 0.140625,0.71875 0.421875,0.96875 0.28125,0.25 0.640625,0.449219 1.078125,0.59375 0.4375,0.136719 1.03125,0.296875 1.78125,0.484375 1.019531,0.242187 1.859375,0.492187 2.515625,0.75 0.664063,0.25 1.226563,0.640625 1.6875,1.171875 0.46875,0.523438 0.703125,1.230469 0.703125,2.125 0,0.761719 -0.210938,1.453125 -0.625,2.078125 C 10.6875,-1.210938 10.0625,-0.71875 9.21875,-0.34375 8.375,0.0195312 7.347656,0.203125 6.140625,0.203125 Z m 0,0"
           id="path40" />
      </g>
    </g>
  </g>
  <path
     stroke-linecap="round"
     fill="none"
     stroke-linejoin="miter"
     d="M 28.838097,137.37673 H 124.98264"
     stroke="#5d3a6d"
     stroke-width="0.75"
     stroke-opacity="1"
     stroke-miterlimit="4"
     id="path43" />
  <path
     stroke-linecap="round"
     fill="none"
     stroke-linejoin="miter"
     d="m 244.39669,137.37673 h 95.76173"
     stroke="#5d3a6d"
     stroke-width="0.75"
     stroke-opacity="1"
     stroke-miterlimit="4"
     id="path44" />
  <path
     fill="#5d3a6d"
     d="m 219.4631,52.411887 c -2.95703,0 -5.46485,-0.82031 -6.33985,-1.95313 -0.21484,0.27735 -0.33203,0.57422 -0.33203,0.88282 0,1.57031 2.98828,2.84375 6.67188,2.84375 3.68359,0 6.66797,-1.27344 6.66797,-2.84375 0,-0.3086 -0.11719,-0.60547 -0.33204,-0.88282 -0.875,1.13282 -3.3789,1.95313 -6.33593,1.95313"
     fill-opacity="1"
     fill-rule="nonzero"
     id="path45" />
  <g
     clip-path="url(#59f8e34e1a)"
     id="g46"
     transform="translate(-3.216591,-95.693583)">
    <path
       fill="#5d3a6d"
       d="m 222.67969,150.96875 c -2.95703,0 -5.46485,-0.82031 -6.33985,-1.95313 -0.21484,0.27735 -0.33203,0.57813 -0.33203,0.88672 0,1.56641 2.98828,4.53907 6.67188,4.53907 3.68359,0 6.66797,-2.97266 6.66797,-4.53907 0,-0.30859 -0.11719,-0.60937 -0.33204,-0.88672 -0.875,1.13282 -3.3789,1.95313 -6.33593,1.95313"
       fill-opacity="1"
       fill-rule="nonzero"
       id="path46" />
  </g>
  <path
     fill="#5d3a6d"
     d="m 219.4631,49.177507 c -3.45703,0 -6.38282,-0.95703 -7.40625,-2.28125 -0.25,0.32422 -0.39063,0.67188 -0.39063,1.03516 0,1.83203 3.49219,3.32031 7.79688,3.32031 4.30468,0 7.79297,-1.48828 7.79297,-3.32031 0,-0.36328 -0.13672,-0.71094 -0.38672,-1.03516 -1.02344,1.32422 -3.95313,2.28125 -7.40625,2.28125"
     fill-opacity="1"
     fill-rule="nonzero"
     id="path47" />
  <g
     clip-path="url(#2cf93e47e3)"
     id="g48"
     transform="translate(-3.0008062,-95.585691)"
     style="fill:#5d3a6d;fill-opacity:1;stroke:none;stroke-opacity:1">
    <path
       fill="#5d3a6d"
       d="m 235.33203,110.47656 0.63281,0.63282 -24.07031,24.07031 c 0.34375,0.38672 0.71094,0.75781 1.09766,1.10937 0,0 0,0.004 0,0.004 0.043,0.0352 0.082,0.0742 0.125,0.10937 0.0195,0.0156 0.0352,0.0352 0.0547,0.0508 0.0625,0.0547 0.1211,0.10938 0.1836,0.16016 1.35937,1.16016 2.14062,2.89453 2.14062,4.75391 v 0.6289 l 0.26953,0.23828 c 0.47266,0.41797 1.15235,0.78907 1.9961,1.08594 0.4375,0.15625 0.91406,-0.10156 1.03515,-0.54687 0.10938,-0.40625 -0.11718,-0.82032 -0.51171,-0.96094 -0.47657,-0.17188 -0.88672,-0.36328 -1.19532,-0.57031 -0.0312,-2.28125 -1.01172,-4.40235 -2.69531,-5.84375 -0.0312,-0.0234 -0.0625,-0.0508 -0.0898,-0.0742 l 18.01172,-18.01563 1.13281,-1.13281 3.79297,-3.78906 0.63281,0.63281 0.92969,-3.47656 -3.47266,0.93359"
       fill-opacity="1"
       fill-rule="nonzero"
       id="path48"
       style="fill:#5d3a6d;fill-opacity:1;stroke:none;stroke-opacity:1" />
  </g>
  <g
     clip-path="url(#9ecc68c597)"
     id="g49"
     transform="translate(-3.216591,-95.693583)"
     style="fill:#ffbd59;fill-opacity:1;stroke:#ffbd59;stroke-opacity:1;stroke-width:0.24974999;stroke-dasharray:none">
    <path
       fill="#ffbd59"
       d="m 222.11719,111.33203 c -7.38672,0.28125 -13.44141,6.28516 -13.78907,13.66797 -0.0859,1.86328 0.1836,3.68359 0.76954,5.38281 0.0117,0.0391 0.0273,0.0781 0.0391,0.11719 0.0273,0.0781 0.0547,0.15234 0.0859,0.23047 0.0234,0.0703 0.0508,0.14062 0.0781,0.21094 0.0273,0.0625 0.0508,0.125 0.0781,0.1875 0.0312,0.0781 0.0625,0.15625 0.0977,0.23437 0,0.008 0.004,0.0117 0.008,0.0156 0.11329,0.26953 0.23829,0.53515 0.3711,0.79687 l 10.76172,-10.76172 0.63281,0.63282 0.93359,-3.47266 -3.47656,0.92969 0.63281,0.63281 -8.96875,8.97265 c -0.35547,-1.29296 -0.51172,-2.65234 -0.44922,-4.03515 0.3086,-6.5625 5.69141,-11.89844 12.25782,-12.14844 2.82422,-0.10937 5.52343,0.69141 7.78906,2.27344 l 0.11719,-0.12109 1.02343,-1.02344 c -2.58984,-1.89063 -5.71875,-2.84766 -8.99218,-2.72266"
       fill-opacity="1"
       fill-rule="nonzero"
       id="path52"
       style="fill:#ffbd59;fill-opacity:1;stroke:#ffbd59;stroke-opacity:1;stroke-width:0.24974999;stroke-dasharray:none" />
  </g>
  <path
     fill="#ffbd59"
     d="m 219.73021,39.644779 c -1.17188,0 -2.1211,-0.94922 -2.1211,-2.1211 0,-1.17187 0.94922,-2.12109 2.1211,-2.12109 1.17187,0 2.125,0.94922 2.125,2.12109 0,1.17188 -0.95313,2.1211 -2.125,2.1211 z m 13.25781,-14.10156 c -0.004,-0.008 -0.004,-0.0156 -0.008,-0.0195 -0.082,-0.25 -0.17188,-0.4961 -0.26953,-0.73829 -0.14454,-0.35546 -0.29688,-0.70312 -0.46485,-1.04687 l -1.20312,1.19922 -9.94141,9.9414 c -0.41016,-0.21484 -0.875,-0.33593 -1.37109,-0.33593 -1.64453,0 -2.97657,1.33593 -2.97657,2.98046 0,1.64454 1.33204,2.98047 2.97657,2.98047 1.64843,0 2.98047,-1.33593 2.98047,-2.98047 0,-0.49609 -0.1211,-0.96093 -0.33204,-1.37109 l 9.32422,-9.32422 c 0.27735,1.05469 0.42188,2.15235 0.42188,3.27344 0,3.67969 -1.58985,7.18359 -4.36719,9.60937 -1.75781,1.53907 -2.77734,3.69922 -2.81641,5.94532 -0.30468,0.20312 -0.71484,0.39843 -1.19531,0.57031 -0.39453,0.14062 -0.61719,0.55469 -0.50781,0.96094 0.12109,0.44531 0.59375,0.70312 1.03125,0.54687 0.84375,-0.29687 1.52734,-0.66797 2,-1.08594 l 0.26953,-0.23828 v -0.6289 c 0,-1.83203 0.82813,-3.60547 2.26953,-4.86719 3.1211,-2.73047 4.91406,-6.67188 4.91406,-10.8125 0,-1.57422 -0.2539,-3.10937 -0.73437,-4.55859"
     fill-opacity="1"
     fill-rule="nonzero"
     id="path50"
     style="stroke:#ffbd59;stroke-opacity:1;stroke-width:0.17475;stroke-dasharray:none" />
  <g
     clip-path="url(#3a2f7e36a5)"
     id="g51"
     transform="translate(-3.216591,-95.693583)">
    <path
       fill="#5d3a6d"
       d="m 217.95703,159.17578 h 9.375 v 45.52344 h -9.375 z m 0,0"
       fill-opacity="1"
       fill-rule="nonzero"
       id="path51" />
  </g>
</svg>
