<svg xmlns="http://www.w3.org/2000/svg" xmlns:xlink="http://www.w3.org/1999/xlink" width="600" zoomAndPan="magnify" viewBox="0 0 450 149.999998" height="200" preserveAspectRatio="xMidYMid meet"><defs><g></g></defs><g fill="#ffffff" fill-opacity="1"><g transform="translate(10.101566, 87.529934)"><g><path d="M 11.125 1.1875 C 6.300781 1.1875 2.953125 -0.320312 1.078125 -3.34375 C -0.796875 -6.375 -1.117188 -10.769531 0.109375 -16.53125 L 10.15625 -63.71875 C 11.375 -69.476562 13.40625 -73.851562 16.25 -76.84375 C 19.09375 -79.832031 22.925781 -81.328125 27.75 -81.328125 C 32.644531 -81.328125 36.03125 -79.832031 37.90625 -76.84375 C 39.78125 -73.851562 40.101562 -69.476562 38.875 -63.71875 L 28.9375 -16.53125 C 27.71875 -10.769531 25.664062 -6.375 22.78125 -3.34375 C 19.90625 -0.320312 16.019531 1.1875 11.125 1.1875 Z M 12.203125 -5.609375 C 16.742188 -5.609375 19.734375 -9.066406 21.171875 -15.984375 L 31.53125 -64.265625 C 32.320312 -67.859375 32.285156 -70.460938 31.421875 -72.078125 C 30.554688 -73.703125 29.007812 -74.515625 26.78125 -74.515625 C 24.625 -74.515625 22.789062 -73.703125 21.28125 -72.078125 C 19.769531 -70.460938 18.613281 -67.859375 17.8125 -64.265625 L 7.5625 -15.984375 C 6.769531 -12.453125 6.785156 -9.835938 7.609375 -8.140625 C 8.441406 -6.453125 9.972656 -5.609375 12.203125 -5.609375 Z M 12.203125 -5.609375 "></path></g></g></g><g fill="#ffffff" fill-opacity="1"><g transform="translate(45.629689, 87.529934)"><g><path d="M 19.984375 -16.734375 L 30.125 -63.828125 L 37.375 -63.828125 L 23.765625 0 L 16.625 0 L 16.953125 -1.734375 L 18.578125 -6.375 L 18.25 -6.375 C 15.375 -1.332031 11.703125 1.1875 7.234375 1.1875 C 3.992188 1.1875 1.6875 0.109375 0.3125 -2.046875 C -1.050781 -4.210938 -1.226562 -7.707031 -0.21875 -12.53125 L 10.6875 -63.828125 L 18.03125 -63.828125 L 7.34375 -13.390625 C 6.84375 -11.015625 6.953125 -9.195312 7.671875 -7.9375 C 8.390625 -6.675781 9.578125 -6.046875 11.234375 -6.046875 C 13.679688 -6.046875 15.625 -7.125 17.0625 -9.28125 C 18.5 -11.445312 19.472656 -13.929688 19.984375 -16.734375 Z M 19.984375 -16.734375 "></path></g></g></g><g fill="#ffffff" fill-opacity="1"><g transform="translate(80.29391, 87.529934)"><g><path d="M 26.359375 -57.03125 L 18.140625 -57.03125 L 8.640625 -12.3125 C 8.203125 -10.082031 8.179688 -8.441406 8.578125 -7.390625 C 8.984375 -6.347656 9.90625 -5.828125 11.34375 -5.828125 C 12.207031 -5.828125 13 -5.863281 13.71875 -5.9375 C 14.4375 -6.007812 15.117188 -6.15625 15.765625 -6.375 L 15.234375 -0.21875 C 14.296875 0.0703125 13.175781 0.378906 11.875 0.703125 C 10.582031 1.023438 9.179688 1.1875 7.671875 1.1875 C 4.285156 1.1875 2.140625 0.0703125 1.234375 -2.15625 C 0.335938 -4.394531 0.285156 -7.457031 1.078125 -11.34375 L 10.796875 -57.03125 L 5.609375 -57.03125 L 7.125 -63.828125 L 12.203125 -63.828125 L 15.015625 -76.890625 L 22.359375 -76.890625 L 19.546875 -63.828125 L 27.859375 -63.828125 Z M 26.359375 -57.03125 "></path></g></g></g><g fill="#ffffff" fill-opacity="1"><g transform="translate(102.323511, 87.529934)"><g><path d="M 9.609375 1.078125 C 5.222656 1.078125 2.164062 -0.359375 0.4375 -3.234375 C -1.289062 -6.117188 -1.582031 -10.441406 -0.4375 -16.203125 L 6.265625 -47.953125 C 8.640625 -59.253906 14.179688 -64.90625 22.890625 -64.90625 C 26.785156 -64.90625 29.6875 -63.71875 31.59375 -61.34375 C 33.5 -58.96875 33.945312 -55.296875 32.9375 -50.328125 L 30.671875 -39.640625 L 23.328125 -39.640625 L 25.59375 -50.4375 C 26.164062 -53.3125 26.070312 -55.328125 25.3125 -56.484375 C 24.5625 -57.640625 23.320312 -58.21875 21.59375 -58.21875 C 17.851562 -58.21875 15.265625 -55.191406 13.828125 -49.140625 L 6.59375 -14.796875 C 5.363281 -8.742188 6.726562 -5.71875 10.6875 -5.71875 C 14.363281 -5.71875 16.773438 -8.492188 17.921875 -14.046875 L 20.515625 -25.921875 L 27.75 -25.921875 L 25.375 -14.046875 C 24.226562 -9.003906 22.300781 -5.222656 19.59375 -2.703125 C 16.894531 -0.179688 13.566406 1.078125 9.609375 1.078125 Z M 9.609375 1.078125 "></path></g></g></g><g fill="#ffffff" fill-opacity="1"><g transform="translate(133.964065, 87.529934)"><g><path d="M 9.71875 1.1875 C 0.644531 1.1875 -2.738281 -4.570312 -0.4375 -16.09375 L 6.265625 -47.953125 C 8.492188 -59.253906 14.035156 -64.90625 22.890625 -64.90625 C 27.359375 -64.90625 30.488281 -63.519531 32.28125 -60.75 C 34.082031 -57.976562 34.375 -53.710938 33.15625 -47.953125 L 26.453125 -15.984375 C 24.078125 -4.535156 18.5 1.1875 9.71875 1.1875 Z M 10.796875 -5.71875 C 14.828125 -5.71875 17.53125 -8.742188 18.90625 -14.796875 L 26.140625 -49.140625 C 27.429688 -55.191406 25.988281 -58.21875 21.8125 -58.21875 C 17.851562 -58.21875 15.191406 -55.191406 13.828125 -49.140625 L 6.59375 -14.796875 C 5.289062 -8.742188 6.691406 -5.71875 10.796875 -5.71875 Z M 10.796875 -5.71875 "></path></g></g></g><g fill="#ffffff" fill-opacity="1"><g transform="translate(166.684496, 87.529934)"><g><path d="M 4.53125 0 L -2.703125 0 L 10.90625 -63.828125 L 18.140625 -63.828125 L 17.71875 -61.984375 L 16.203125 -57.34375 L 16.421875 -57.34375 C 17.640625 -59.789062 19.273438 -61.660156 21.328125 -62.953125 C 23.378906 -64.253906 25.519531 -64.90625 27.75 -64.90625 C 30.269531 -64.90625 32.101562 -64.21875 33.25 -62.84375 C 34.40625 -61.476562 34.984375 -59.679688 34.984375 -57.453125 L 35.3125 -57.453125 C 36.539062 -59.753906 38.144531 -61.570312 40.125 -62.90625 C 42.101562 -64.238281 44.242188 -64.90625 46.546875 -64.90625 C 49.140625 -64.90625 50.992188 -64.21875 52.109375 -62.84375 C 53.222656 -61.476562 53.832031 -59.734375 53.9375 -57.609375 C 54.050781 -55.492188 53.820312 -53.25 53.25 -50.875 L 42.4375 0 L 35.09375 0 L 45.6875 -49.6875 C 46.1875 -51.695312 46.273438 -53.53125 45.953125 -55.1875 C 45.628906 -56.84375 44.390625 -57.671875 42.234375 -57.671875 C 40.210938 -57.671875 38.425781 -56.695312 36.875 -54.75 C 35.332031 -52.8125 34.273438 -50.4375 33.703125 -47.625 L 23.546875 0 L 16.3125 0 L 26.890625 -50.109375 C 27.390625 -52.203125 27.40625 -53.984375 26.9375 -55.453125 C 26.476562 -56.929688 25.238281 -57.671875 23.21875 -57.671875 C 21.207031 -57.671875 19.441406 -56.695312 17.921875 -54.75 C 16.410156 -52.8125 15.332031 -50.363281 14.6875 -47.40625 Z M 4.53125 0 "></path></g></g></g><g fill="#ffffff" fill-opacity="1"><g transform="translate(219.814719, 87.529934)"><g><path d="M 23.109375 -64.90625 C 31.753906 -64.90625 34.851562 -59.035156 32.40625 -47.296875 L 28.625 -29.375 L 9.609375 -29.375 L 6.59375 -15.015625 C 6.007812 -12.128906 5.988281 -9.859375 6.53125 -8.203125 C 7.070312 -6.546875 8.351562 -5.71875 10.375 -5.71875 C 12.382812 -5.71875 13.960938 -6.296875 15.109375 -7.453125 C 16.265625 -8.609375 17.132812 -10.375 17.71875 -12.75 L 19.765625 -22.359375 L 27 -22.359375 L 25.0625 -12.953125 C 23.976562 -8.566406 22.03125 -5.113281 19.21875 -2.59375 C 16.414062 -0.0703125 12.890625 1.1875 8.640625 1.1875 C 4.109375 1.1875 1.175781 -0.410156 -0.15625 -3.609375 C -1.488281 -6.816406 -1.582031 -10.941406 -0.4375 -15.984375 L 6.265625 -47.953125 C 7.410156 -52.992188 9.332031 -57.078125 12.03125 -60.203125 C 14.738281 -63.335938 18.429688 -64.90625 23.109375 -64.90625 Z M 13.828125 -48.921875 L 11.015625 -35.96875 L 22.578125 -35.96875 L 25.265625 -48.921875 C 25.992188 -52.160156 26.050781 -54.519531 25.4375 -56 C 24.820312 -57.476562 23.503906 -58.21875 21.484375 -58.21875 C 17.597656 -58.21875 15.046875 -55.117188 13.828125 -48.921875 Z M 13.828125 -48.921875 "></path></g></g></g><g fill="#ffffff" fill-opacity="1"><g transform="translate(251.671224, 87.529934)"><g></g></g></g><g fill="#ffffff" fill-opacity="1"><g transform="translate(268.193424, 87.529934)"><g><path d="M 10.15625 0 L -2.265625 0 L 14.796875 -80.25 L 26.359375 -80.25 C 37.367188 -80.25 41.363281 -73.40625 38.34375 -59.71875 L 30.03125 -20.40625 C 28.4375 -13.207031 26.164062 -8.003906 23.21875 -4.796875 C 20.269531 -1.597656 15.914062 0 10.15625 0 Z M 20.953125 -73.4375 L 6.796875 -6.796875 L 11.125 -6.796875 C 13.863281 -6.796875 16.164062 -7.734375 18.03125 -9.609375 C 19.90625 -11.484375 21.347656 -14.832031 22.359375 -19.65625 L 31 -60.703125 C 32.007812 -65.523438 31.988281 -68.851562 30.9375 -70.6875 C 29.894531 -72.519531 28.003906 -73.4375 25.265625 -73.4375 Z M 20.953125 -73.4375 "></path></g></g></g><g fill="#ffffff" fill-opacity="1"><g transform="translate(304.045518, 87.529934)"><g><path d="M 26.890625 -64.90625 C 28.191406 -64.90625 29.378906 -64.726562 30.453125 -64.375 L 28.734375 -56.375 C 27.648438 -56.8125 26.425781 -57.03125 25.0625 -57.03125 C 22.320312 -57.03125 20.03125 -55.984375 18.1875 -53.890625 C 16.351562 -51.804688 15.039062 -48.890625 14.25 -45.140625 L 4.53125 0 L -2.703125 0 L 10.90625 -63.828125 L 18.140625 -63.828125 L 17.609375 -61.890625 L 15.984375 -57.234375 L 16.3125 -57.234375 C 17.53125 -59.753906 19.09375 -61.660156 21 -62.953125 C 22.914062 -64.253906 24.878906 -64.90625 26.890625 -64.90625 Z M 26.890625 -64.90625 "></path></g></g></g><g fill="#ffffff" fill-opacity="1"><g transform="translate(328.018921, 87.529934)"><g><path d="M 16.09375 -71.0625 C 14.4375 -71.0625 13.335938 -71.472656 12.796875 -72.296875 C 12.253906 -73.128906 12.203125 -74.445312 12.640625 -76.25 C 12.992188 -78.125 13.640625 -79.472656 14.578125 -80.296875 C 15.515625 -81.128906 16.773438 -81.546875 18.359375 -81.546875 C 20.015625 -81.546875 21.113281 -81.128906 21.65625 -80.296875 C 22.195312 -79.472656 22.285156 -78.125 21.921875 -76.25 C 21.203125 -72.789062 19.257812 -71.0625 16.09375 -71.0625 Z M 4.53125 0 L -2.703125 0 L 10.90625 -63.828125 L 18.140625 -63.828125 Z M 4.53125 0 "></path></g></g></g><g fill="#ffffff" fill-opacity="1"><g transform="translate(343.569244, 87.529934)"><g><path d="M 12.953125 0 L 3.234375 0 L 7.78125 -63.828125 L 15.015625 -63.828125 L 12.203125 -23.546875 L 10.046875 -9.9375 L 10.375 -9.9375 L 13.9375 -23.546875 L 28.296875 -63.828125 L 35.75 -63.828125 Z M 12.953125 0 "></path></g></g></g><g fill="#ffffff" fill-opacity="1"><g transform="translate(373.373983, 87.529934)"><g><path d="M 23.109375 -64.90625 C 31.753906 -64.90625 34.851562 -59.035156 32.40625 -47.296875 L 28.625 -29.375 L 9.609375 -29.375 L 6.59375 -15.015625 C 6.007812 -12.128906 5.988281 -9.859375 6.53125 -8.203125 C 7.070312 -6.546875 8.351562 -5.71875 10.375 -5.71875 C 12.382812 -5.71875 13.960938 -6.296875 15.109375 -7.453125 C 16.265625 -8.609375 17.132812 -10.375 17.71875 -12.75 L 19.765625 -22.359375 L 27 -22.359375 L 25.0625 -12.953125 C 23.976562 -8.566406 22.03125 -5.113281 19.21875 -2.59375 C 16.414062 -0.0703125 12.890625 1.1875 8.640625 1.1875 C 4.109375 1.1875 1.175781 -0.410156 -0.15625 -3.609375 C -1.488281 -6.816406 -1.582031 -10.941406 -0.4375 -15.984375 L 6.265625 -47.953125 C 7.410156 -52.992188 9.332031 -57.078125 12.03125 -60.203125 C 14.738281 -63.335938 18.429688 -64.90625 23.109375 -64.90625 Z M 13.828125 -48.921875 L 11.015625 -35.96875 L 22.578125 -35.96875 L 25.265625 -48.921875 C 25.992188 -52.160156 26.050781 -54.519531 25.4375 -56 C 24.820312 -57.476562 23.503906 -58.21875 21.484375 -58.21875 C 17.597656 -58.21875 15.046875 -55.117188 13.828125 -48.921875 Z M 13.828125 -48.921875 "></path></g></g></g><g fill="#ffffff" fill-opacity="1"><g transform="translate(405.230511, 87.529934)"><g><path d="M 27.546875 -64.90625 C 30.785156 -64.90625 33.066406 -63.84375 34.390625 -61.71875 C 35.722656 -59.59375 35.890625 -56.117188 34.890625 -51.296875 L 23.96875 0 L 16.625 0 L 27.4375 -50.328125 C 28.4375 -55.222656 27.101562 -57.671875 23.4375 -57.671875 C 21.0625 -57.671875 19.148438 -56.609375 17.703125 -54.484375 C 16.265625 -52.359375 15.257812 -49.894531 14.6875 -47.09375 L 4.53125 0 L -2.703125 0 L 10.90625 -63.828125 L 18.140625 -63.828125 L 17.71875 -62.09375 L 16.203125 -57.34375 L 16.421875 -57.34375 C 19.148438 -62.382812 22.859375 -64.90625 27.546875 -64.90625 Z M 27.546875 -64.90625 "></path></g></g></g><g fill="#ffffff" fill-opacity="1"><g transform="translate(14.711722, 139.979994)"><g><path d="M 14.109375 0.671875 C 9.953125 0.671875 6.84375 -0.359375 4.78125 -2.421875 C 2.71875 -4.484375 1.664062 -7.273438 1.625 -10.796875 L 7.015625 -10.796875 C 7.015625 -9.742188 7.210938 -8.6875 7.609375 -7.625 C 8.003906 -6.570312 8.710938 -5.691406 9.734375 -4.984375 C 10.765625 -4.285156 12.222656 -3.9375 14.109375 -3.9375 C 16.285156 -3.9375 17.882812 -4.4375 18.90625 -5.4375 C 19.9375 -6.445312 20.453125 -7.816406 20.453125 -9.546875 C 20.453125 -11.085938 20.160156 -12.273438 19.578125 -13.109375 C 19.003906 -13.941406 18.125 -14.617188 16.9375 -15.140625 C 15.757812 -15.671875 14.257812 -16.207031 12.4375 -16.75 C 10.320312 -17.394531 8.535156 -18.125 7.078125 -18.9375 C 5.617188 -19.75 4.515625 -20.796875 3.765625 -22.078125 C 3.015625 -23.359375 2.640625 -25.023438 2.640625 -27.078125 C 2.640625 -29.859375 3.609375 -32.085938 5.546875 -33.765625 C 7.484375 -35.441406 10.242188 -36.28125 13.828125 -36.28125 C 17.828125 -36.28125 20.773438 -35.265625 22.671875 -33.234375 C 24.578125 -31.203125 25.546875 -28.570312 25.578125 -25.34375 L 20.40625 -25.34375 C 20.375 -26.46875 20.164062 -27.507812 19.78125 -28.46875 C 19.394531 -29.425781 18.742188 -30.203125 17.828125 -30.796875 C 16.921875 -31.390625 15.617188 -31.6875 13.921875 -31.6875 C 11.867188 -31.6875 10.382812 -31.226562 9.46875 -30.3125 C 8.5625 -29.394531 8.109375 -28.300781 8.109375 -27.03125 C 8.109375 -25.78125 8.375 -24.789062 8.90625 -24.0625 C 9.4375 -23.34375 10.195312 -22.769531 11.1875 -22.34375 C 12.175781 -21.914062 13.359375 -21.507812 14.734375 -21.125 C 17.265625 -20.445312 19.351562 -19.628906 21 -18.671875 C 22.644531 -17.710938 23.882812 -16.503906 24.71875 -15.046875 C 25.550781 -13.585938 25.96875 -11.738281 25.96875 -9.5 C 25.96875 -6.300781 24.925781 -3.804688 22.84375 -2.015625 C 20.769531 -0.222656 17.859375 0.671875 14.109375 0.671875 Z M 14.109375 0.671875 "></path></g></g></g><g fill="#ffffff" fill-opacity="1"><g transform="translate(68.951667, 139.979994)"><g><path d="M 13.6875 0.671875 C 9.90625 0.671875 7.019531 -0.503906 5.03125 -2.859375 C 3.050781 -5.210938 2.0625 -8.722656 2.0625 -13.390625 L 2.0625 -14.96875 C 2.0625 -19.644531 3.050781 -23.148438 5.03125 -25.484375 C 7.019531 -27.816406 9.90625 -28.984375 13.6875 -28.984375 C 17.457031 -28.984375 20.332031 -27.816406 22.3125 -25.484375 C 24.300781 -23.148438 25.296875 -19.644531 25.296875 -14.96875 L 25.296875 -13.390625 C 25.296875 -8.691406 24.296875 -5.171875 22.296875 -2.828125 C 20.296875 -0.492188 17.425781 0.671875 13.6875 0.671875 Z M 7.25 -12.90625 C 7.25 -9.800781 7.804688 -7.535156 8.921875 -6.109375 C 10.046875 -4.691406 11.632812 -3.984375 13.6875 -3.984375 C 15.757812 -3.984375 17.347656 -4.691406 18.453125 -6.109375 C 19.554688 -7.535156 20.109375 -9.800781 20.109375 -12.90625 L 20.109375 -15.40625 C 20.109375 -18.539062 19.554688 -20.8125 18.453125 -22.21875 C 17.347656 -23.632812 15.757812 -24.34375 13.6875 -24.34375 C 11.632812 -24.34375 10.046875 -23.632812 8.921875 -22.21875 C 7.804688 -20.8125 7.25 -18.539062 7.25 -15.40625 Z M 7.25 -12.90625 "></path></g></g></g><g fill="#ffffff" fill-opacity="1"><g transform="translate(122.663616, 139.979994)"><g><path d="M 3.546875 0 L 3.546875 -36.71875 L 8.734375 -36.71875 L 8.734375 0 Z M 3.546875 0 "></path></g></g></g><g fill="#ffffff" fill-opacity="1"><g transform="translate(161.35159, 139.979994)"><g><path d="M 26.015625 -28.3125 L 26.015625 0 L 20.828125 0 L 20.828125 -2.296875 L 21.125 -5.515625 L 21.03125 -5.515625 C 20.320312 -3.566406 19.238281 -2.046875 17.78125 -0.953125 C 16.320312 0.128906 14.523438 0.671875 12.390625 0.671875 C 9.628906 0.671875 7.429688 -0.179688 5.796875 -1.890625 C 4.171875 -3.609375 3.359375 -6.453125 3.359375 -10.421875 L 3.359375 -28.3125 L 8.546875 -28.3125 L 8.546875 -11.140625 C 8.546875 -8.796875 9.023438 -7.054688 9.984375 -5.921875 C 10.941406 -4.785156 12.300781 -4.21875 14.0625 -4.21875 C 15.695312 -4.21875 17.007812 -4.648438 18 -5.515625 C 18.988281 -6.378906 19.707031 -7.484375 20.15625 -8.828125 C 20.601562 -10.171875 20.828125 -11.546875 20.828125 -12.953125 L 20.828125 -28.3125 Z M 26.015625 -28.3125 "></path></g></g></g><g fill="#ffffff" fill-opacity="1"><g transform="translate(217.319536, 139.979994)"><g><path d="M 12.4375 0.671875 C 9.519531 0.671875 7.476562 -0.101562 6.3125 -1.65625 C 5.144531 -3.207031 4.5625 -5.34375 4.5625 -8.0625 L 4.5625 -23.71875 L 0.4375 -23.71875 L 0.4375 -28.3125 L 4.5625 -28.3125 L 4.5625 -34.75 L 9.75 -34.75 L 9.75 -28.3125 L 16.609375 -28.3125 L 16.609375 -23.71875 L 9.75 -23.71875 L 9.75 -9.171875 C 9.75 -7.410156 10.050781 -6.101562 10.65625 -5.25 C 11.257812 -4.40625 12.300781 -3.984375 13.78125 -3.984375 C 14.414062 -3.984375 14.992188 -4.003906 15.515625 -4.046875 C 16.046875 -4.097656 16.617188 -4.171875 17.234375 -4.265625 L 17.234375 0.140625 C 16.554688 0.273438 15.796875 0.394531 14.953125 0.5 C 14.109375 0.613281 13.269531 0.671875 12.4375 0.671875 Z M 12.4375 0.671875 "></path></g></g></g><g fill="#ffffff" fill-opacity="1"><g transform="translate(261.575507, 139.979994)"><g><path d="M 3.546875 0 L 3.546875 -28.3125 L 8.734375 -28.3125 L 8.734375 0 Z M 2.921875 -35.140625 C 2.921875 -37.148438 4.007812 -38.15625 6.1875 -38.15625 C 7.34375 -38.15625 8.175781 -37.90625 8.6875 -37.40625 C 9.195312 -36.914062 9.453125 -36.160156 9.453125 -35.140625 C 9.453125 -34.140625 9.195312 -33.398438 8.6875 -32.921875 C 8.175781 -32.441406 7.34375 -32.203125 6.1875 -32.203125 C 4.007812 -32.203125 2.921875 -33.179688 2.921875 -35.140625 Z M 2.921875 -35.140625 "></path></g></g></g><g fill="#ffffff" fill-opacity="1"><g transform="translate(300.26347, 139.979994)"><g><path d="M 13.6875 0.671875 C 9.90625 0.671875 7.019531 -0.503906 5.03125 -2.859375 C 3.050781 -5.210938 2.0625 -8.722656 2.0625 -13.390625 L 2.0625 -14.96875 C 2.0625 -19.644531 3.050781 -23.148438 5.03125 -25.484375 C 7.019531 -27.816406 9.90625 -28.984375 13.6875 -28.984375 C 17.457031 -28.984375 20.332031 -27.816406 22.3125 -25.484375 C 24.300781 -23.148438 25.296875 -19.644531 25.296875 -14.96875 L 25.296875 -13.390625 C 25.296875 -8.691406 24.296875 -5.171875 22.296875 -2.828125 C 20.296875 -0.492188 17.425781 0.671875 13.6875 0.671875 Z M 7.25 -12.90625 C 7.25 -9.800781 7.804688 -7.535156 8.921875 -6.109375 C 10.046875 -4.691406 11.632812 -3.984375 13.6875 -3.984375 C 15.757812 -3.984375 17.347656 -4.691406 18.453125 -6.109375 C 19.554688 -7.535156 20.109375 -9.800781 20.109375 -12.90625 L 20.109375 -15.40625 C 20.109375 -18.539062 19.554688 -20.8125 18.453125 -22.21875 C 17.347656 -23.632812 15.757812 -24.34375 13.6875 -24.34375 C 11.632812 -24.34375 10.046875 -23.632812 8.921875 -22.21875 C 7.804688 -20.8125 7.25 -18.539062 7.25 -15.40625 Z M 7.25 -12.90625 "></path></g></g></g><g fill="#ffffff" fill-opacity="1"><g transform="translate(353.975419, 139.979994)"><g><path d="M 3.546875 0 L 3.546875 -28.3125 L 8.734375 -28.3125 L 8.734375 -26.015625 L 8.453125 -22.796875 L 8.546875 -22.796875 C 9.273438 -24.785156 10.359375 -26.3125 11.796875 -27.375 C 13.242188 -28.445312 15.039062 -28.984375 17.1875 -28.984375 C 19.9375 -28.984375 22.125 -28.132812 23.75 -26.4375 C 25.382812 -24.75 26.203125 -21.90625 26.203125 -17.90625 L 26.203125 0 L 21.03125 0 L 21.03125 -17.1875 C 21.03125 -19.519531 20.554688 -21.253906 19.609375 -22.390625 C 18.660156 -23.523438 17.289062 -24.09375 15.5 -24.09375 C 13.90625 -24.09375 12.601562 -23.660156 11.59375 -22.796875 C 10.582031 -21.929688 9.851562 -20.828125 9.40625 -19.484375 C 8.957031 -18.140625 8.734375 -16.765625 8.734375 -15.359375 L 8.734375 0 Z M 3.546875 0 "></path></g></g></g><g fill="#ffffff" fill-opacity="1"><g transform="translate(409.943387, 139.979994)"><g><path d="M 12.859375 0.625 C 10.335938 0.625 8.273438 0.21875 6.671875 -0.59375 C 5.066406 -1.414062 3.878906 -2.535156 3.109375 -3.953125 C 2.347656 -5.378906 1.953125 -7.019531 1.921875 -8.875 L 7.0625 -8.875 C 7.21875 -5.488281 9.25 -3.796875 13.15625 -3.796875 C 14.8125 -3.796875 16.085938 -4.128906 16.984375 -4.796875 C 17.890625 -5.472656 18.34375 -6.4375 18.34375 -7.6875 L 18.34375 -7.734375 C 18.34375 -9.203125 17.820312 -10.238281 16.78125 -10.84375 C 15.738281 -11.457031 14.175781 -12.003906 12.09375 -12.484375 C 8.988281 -13.179688 6.617188 -14.144531 4.984375 -15.375 C 3.359375 -16.613281 2.546875 -18.5 2.546875 -21.03125 L 2.546875 -21.078125 C 2.546875 -23.347656 3.34375 -25.234375 4.9375 -26.734375 C 6.539062 -28.234375 9.054688 -28.984375 12.484375 -28.984375 C 14.941406 -28.984375 16.9375 -28.578125 18.46875 -27.765625 C 20.007812 -26.953125 21.144531 -25.894531 21.875 -24.59375 C 22.613281 -23.300781 23.003906 -21.90625 23.046875 -20.40625 L 17.953125 -20.40625 C 17.921875 -21.070312 17.726562 -21.71875 17.375 -22.34375 C 17.019531 -22.96875 16.453125 -23.488281 15.671875 -23.90625 C 14.890625 -24.320312 13.84375 -24.53125 12.53125 -24.53125 C 10.863281 -24.53125 9.65625 -24.207031 8.90625 -23.5625 C 8.15625 -22.925781 7.78125 -22.097656 7.78125 -21.078125 L 7.78125 -21.03125 C 7.78125 -19.6875 8.3125 -18.734375 9.375 -18.171875 C 10.445312 -17.609375 11.898438 -17.132812 13.734375 -16.75 C 16.992188 -16.050781 19.4375 -15.0625 21.0625 -13.78125 C 22.695312 -12.5 23.515625 -10.53125 23.515625 -7.875 C 23.515625 -5.21875 22.585938 -3.132812 20.734375 -1.625 C 18.878906 -0.125 16.253906 0.625 12.859375 0.625 Z M 12.859375 0.625 "></path></g></g></g></svg>