<?xml version="1.0" encoding="utf-8"?>
<!-- Generator: Adobe Illustrator 26.3.1, SVG Export Plug-In . SVG Version: 6.00 Build 0)  -->
<svg version="1.1" id="Layer_1" xmlns="http://www.w3.org/2000/svg" xmlns:xlink="http://www.w3.org/1999/xlink" x="0px" y="0px"
	 viewBox="0 0 3738 933" style="enable-background:new 0 0 3738 933;" xml:space="preserve">
<style type="text/css">
	.st0{display:none;}
	.st1{display:inline;fill:#851AC0;}
	.st2{fill:#FF4401;}
	.st3{fill:url(#SVGID_1_);}
	.st4{fill:url(#SVGID_00000020381228535000694060000010780560197125763714_);}
	.st5{fill:url(#SVGID_00000106846257963672391460000012953759216960279710_);}
	.st6{fill:url(#SVGID_00000181809588544552219630000012905594411985573521_);}
	.st7{fill:url(#SVGID_00000084530796636233464160000009980536142924753322_);}
	.st8{fill:url(#SVGID_00000110455066510323302150000017567681945095660680_);}
	.st9{fill:#1119A5;}
	.st10{fill:#E01248;}
	.st11{fill:#FC2B08;}
	.st12{fill:#FA780A;}
	.st13{fill:#16A520;}
</style>
<g class="st0">
	<path class="st1" d="M1213.6,681.5v-54.9h17.5c14.8,0,24.4,6.6,24.4,19.4c0,13.1-9.8,19.7-23.9,19.7h-9.5v15.8H1213.6z
		 M1221.9,634.2v23.6h9.3c9,0,15.5-3.5,15.5-11.9c0-8-6.2-11.7-15.5-11.7L1221.9,634.2L1221.9,634.2z"/>
	<path class="st1" d="M1295.4,653.9c0-15.9,12.4-28.3,28.3-28.3c15.8,0,28.1,12.4,28.1,28.3c0,16.2-12.3,28.5-28.1,28.5
		C1307.7,682.5,1295.4,670.1,1295.4,653.9z M1343.2,653.9c0-11.4-8.6-20.3-19.5-20.3s-19.7,8.9-19.7,20.3c0,11.6,8.7,20.6,19.7,20.6
		C1334.5,674.5,1343.2,665.5,1343.2,653.9z"/>
	<path class="st1" d="M1390.9,626.5h8.4l9.6,46c0.2,1.2,0.7,1.8,1.3,1.8s1.1-0.5,1.4-1.8l9.1-39.1c1.1-5.1,3.9-7.4,7.6-7.4
		c3.9,0,6.6,2.2,7.7,7.3l9.4,39.2c0.3,1.1,0.7,1.7,1.4,1.7s1.1-0.6,1.2-1.7l8.9-46h8.4l-9.8,48.1c-1,4.8-3.8,7.9-8.3,7.9
		c-4.3,0-7.4-2.6-8.6-7.6l-9.5-39.7c-0.2-0.7-0.4-1.1-0.8-1.1c-0.3,0-0.7,0.3-0.8,1.1l-9.3,40.2c-1.1,4.6-4.3,7.2-8.2,7.2
		c-4.3,0-7.5-2.6-8.5-7.5L1390.9,626.5z"/>
	<path class="st1" d="M1516.7,681.5c-5.7,0-7.7-2.9-7.7-7.5v-39.9c0-4.7,2-7.5,7.7-7.5h30.2v7.6h-29.5v16h27.9v7.6h-27.9v16.1h30.1
		v7.6L1516.7,681.5L1516.7,681.5z"/>
	<path class="st1" d="M1594.4,681.5v-54.9h19.1c11.6,0,20.7,5.3,20.7,16.6c0,7.8-4.8,13.4-12.5,15.1c4.4,2.1,6.8,6.6,10,13.1l5,10.1
		h-9l-4.6-9.3c-3.3-6.5-6-10.7-13.7-10.7h-6.8l-0.1,20L1594.4,681.5L1594.4,681.5z M1602.7,634.2l-0.1,19.8h10.7
		c7.1,0,12.2-3.4,12.2-10.1c0-6.8-5.4-9.7-12.1-9.7H1602.7z"/>
	<path class="st1" d="M1691.6,626.5v54.9h-8.4v-54.9H1691.6z"/>
	<path class="st1" d="M1741.6,681.5v-48.1c0-5,3.3-7.9,7.5-7.9c3.4,0,5.7,1.3,7.2,4.2l23.1,43.2c0.2,0.7,0.4,1.1,0.9,1.1
		c0.3,0,0.4-0.2,0.4-0.7v-46.8h8v48.1c0,5-3.5,7.8-7.3,7.8c-3.1,0-5.8-1.3-7.4-4.3l-23-43.3c-0.2-0.7-0.3-1-0.7-1
		c-0.5,0-0.7,0.3-0.7,1v46.6h-8V681.5z"/>
	<path class="st1" d="M1833.6,653.9c0-15.5,12.1-28.3,28-28.3c9.1,0,18,4.4,22.2,12.8l-6.8,3.9c-3.3-5.7-9-8.9-15.7-8.9
		c-10.8,0-19,9.1-19,20.6c0,11.7,8.2,20.7,19.4,20.7c6.6,0,11.9-2.5,14.5-5.7v-13.2h8.1V672c-3.8,5.5-11.9,10.5-22.6,10.5
		C1845.9,682.5,1833.6,669.7,1833.6,653.9z"/>
	<path class="st1" d="M2023.4,634.2h-16.9v47.2h-8.4v-47.2h-16.8v-7.7h42.1L2023.4,634.2L2023.4,634.2z"/>
	<path class="st1" d="M2066.9,681.5v-54.9h8.4v23.7h29.1v-23.7h8.4v54.9h-8.4V658h-29.1v23.5H2066.9z"/>
	<path class="st1" d="M2170.3,681.5c-5.7,0-7.7-2.9-7.7-7.5v-39.9c0-4.7,2-7.5,7.7-7.5h30.2v7.6H2171v16h27.9v7.6H2171v16.1h30.1
		v7.6L2170.3,681.5L2170.3,681.5z"/>
	<path class="st1" d="M2324.1,681.5h-18.6v-54.9h19c17.6,0,29.4,10.9,29.4,27.2C2353.9,671,2341.1,681.5,2324.1,681.5z
		 M2324.5,634.2h-10.7v39.6h10.2c12,0,21.2-7.5,21.2-20.1C2345.3,642.1,2336.8,634.2,2324.5,634.2z"/>
	<path class="st1" d="M2408.9,626.5v54.9h-8.4v-54.9H2408.9z"/>
	<path class="st1" d="M2454.5,653.9c0-15.5,12.1-28.3,28-28.3c9.1,0,18,4.4,22.2,12.8l-6.8,3.9c-3.3-5.7-9-8.9-15.7-8.9
		c-10.8,0-19,9.1-19,20.6c0,11.7,8.2,20.7,19.4,20.7c6.6,0,11.9-2.5,14.5-5.7v-13.2h8.1V672c-3.8,5.5-11.9,10.5-22.6,10.5
		C2466.7,682.5,2454.5,669.7,2454.5,653.9z"/>
	<path class="st1" d="M2560.2,626.5v54.9h-8.4v-54.9H2560.2z"/>
	<path class="st1" d="M2645.7,634.2h-16.9v47.2h-8.4v-47.2h-16.8v-7.7h42.1L2645.7,634.2L2645.7,634.2z"/>
	<path class="st1" d="M2695.2,633.2c1.6-5.2,5.7-7.6,10.2-7.6c4.7,0,8.7,2.5,10.3,7.6l15,48.3h-8.5l-4-13.4l-25.6,0.1l-4,13.4h-8.4
		L2695.2,633.2z M2695,660.5h21.1l-7.4-24.8c-0.6-1.7-1.6-2.5-3.1-2.5c-1.6,0-2.6,0.8-3.1,2.5L2695,660.5z"/>
	<path class="st1" d="M2784.5,673.8h27.3v7.7h-28c-5.6,0-7.7-2.9-7.7-7.5v-47.4h8.4V673.8z"/>
	<path class="st1" d="M2919.4,681.5c-5.7,0-7.7-2.9-7.7-7.5v-39.9c0-4.7,2-7.5,7.7-7.5h30.2v7.6h-29.5v16h27.9v7.6h-27.9v16.1h30.1
		v7.6L2919.4,681.5L2919.4,681.5z"/>
	<path class="st1" d="M2992.1,653.9c0-15.8,12.5-28.4,28-28.4c9.4,0,18,4.8,22.2,12.9l-6.8,3.9c-3.2-5.5-8.7-8.9-15.7-8.9
		c-10.7,0-19,8.9-19,20.4c0,11.7,8.3,20.7,19,20.7c7.1,0,12.6-3.4,15.7-8.9l6.8,3.9c-4.2,8-12.8,12.8-22.2,12.8
		C3004.5,682.5,2992.1,669.9,2992.1,653.9z"/>
	<path class="st1" d="M3081.1,653.9c0-15.9,12.4-28.3,28.3-28.3c15.8,0,28.1,12.4,28.1,28.3c0,16.2-12.3,28.5-28.1,28.5
		C3093.4,682.5,3081.1,670.1,3081.1,653.9z M3128.9,653.9c0-11.4-8.6-20.3-19.5-20.3s-19.7,8.9-19.7,20.3c0,11.6,8.7,20.6,19.7,20.6
		C3120.2,674.5,3128.9,665.5,3128.9,653.9z"/>
	<path class="st1" d="M3182.6,681.5v-48.1c0-5,3.3-7.9,7.5-7.9c3.4,0,5.7,1.3,7.2,4.2l23.1,43.2c0.2,0.7,0.4,1.1,0.9,1.1
		c0.3,0,0.4-0.2,0.4-0.7v-46.8h8v48.1c0,5-3.5,7.8-7.3,7.8c-3.1,0-5.8-1.3-7.4-4.3l-23-43.3c-0.2-0.7-0.3-1-0.7-1
		c-0.5,0-0.7,0.3-0.7,1v46.6h-8V681.5z"/>
	<path class="st1" d="M3274.7,653.9c0-15.9,12.4-28.3,28.3-28.3c15.8,0,28.1,12.4,28.1,28.3c0,16.2-12.3,28.5-28.1,28.5
		C3287,682.5,3274.7,670.1,3274.7,653.9z M3322.5,653.9c0-11.4-8.6-20.3-19.5-20.3s-19.7,8.9-19.7,20.3c0,11.6,8.7,20.6,19.7,20.6
		C3313.8,674.5,3322.5,665.5,3322.5,653.9z"/>
	<path class="st1" d="M3373.1,681.6l7.7-48.7c0.7-4.8,4.2-7.3,8.6-7.3c3.9,0,7.3,1.9,8.5,6.2l10.6,38.3c0.2,0.7,0.3,1,0.7,1
		c0.5,0,0.6-0.2,0.8-1l10.5-38.1c1.1-4.3,4.7-6.3,8.6-6.3c4.3,0,7.7,2.6,8.4,7.5l7,48.4h-8.4l-6.1-45.8c-0.2-1.1-0.5-1.9-1.4-1.9
		c-0.7,0-1.2,0.6-1.5,1.6l-11.3,39.4c-0.9,3.3-3.5,4.9-6.6,4.9c-3,0-5.7-1.6-6.6-4.8l-11.2-39.6c-0.3-1.1-0.7-1.6-1.5-1.6
		s-1.3,0.6-1.5,1.9l-6.8,45.9L3373.1,681.6L3373.1,681.6z"/>
	<path class="st1" d="M3482.7,626.5h8.9l11.8,28c0.9,1.9,1.6,2.9,2.9,2.9c1.3,0,2-1.1,2.9-2.9l11.8-28h9l-13.4,30.3
		c-1.5,3.5-3.6,5.8-6.2,7.1v17.5h-8.4v-17.5c-2.5-1.1-4.7-3.5-6.2-7.1L3482.7,626.5z"/>
</g>
<g id="austratech">
	<path class="st2" d="M1090.9,364c9.7-30.8,35-45.5,61.6-45.5c27,0,52.3,14.8,62,45.5l75.1,243.8h-62.9l-16.4-58.2l-115.1,0.4
		l-16.4,57.8H1016L1090.9,364z M1095.2,550l115.1-0.4l-48.2-167.4c-1.7-5.9-4.2-8.4-9.3-8.4c-4.6,0-7.6,2.5-9.3,8.4L1095.2,550z"/>
	<path class="st2" d="M1312.7,481.7V324h61.6v156.5c0,49.3,20.2,73.4,62,73.4s62-24,62-73.4V324h61.6v157.7
		c0,81.8-39.2,130.7-123.6,130.7C1351.5,612.5,1312.7,563.5,1312.7,481.7z"/>
	<path class="st2" d="M1603.3,551.3l51.5-25.7c9.3,20.7,29.1,31.2,58.6,31.2c26.6,0,46.8-11,46.8-31.2c0-23.6-22.4-27.4-51.9-32.5
		c-42.6-7.2-100.4-22.4-100.4-86.5c0-49.8,44.7-87.7,103.3-87.7c46.8,0,87.3,21.5,105.4,62l-51.5,25.7
		c-9.3-18.1-27.8-30.8-56.5-30.8c-23.2,0-39.2,11-39.2,28.3c0,22.8,23.6,28.7,54.4,34.2c42.2,7.2,97.8,22.4,97.8,86.9
		c0,51-48.1,88.1-108.4,88.1C1662.4,613.3,1621.5,591.8,1603.3,551.3z"/>
	<path class="st2" d="M2068.9,380.9h-83.5v226.9h-61.6V380.9h-83.5V324h228.6V380.9z"/>
	<path class="st2" d="M2106.9,607.8V324h109.2c64.1,0,113.5,29.9,113.5,90.3c0,38.8-22.8,68.7-59,78.4c18.1,10.1,28.7,29.5,43.4,59
		l27.4,56.1h-66.7l-25.3-50.6c-13.1-26.1-25.3-40.1-57.4-40.1h-24l-0.4,90.7H2106.9z M2168.5,380.9l-0.4,81.4h48.1
		c29.1,0,50.2-15.2,50.2-41.8c0-27.8-21.5-39.6-49.3-39.6H2168.5z"/>
	<path class="st2" d="M2439.6,364c9.7-30.8,35-45.5,61.6-45.5c27,0,52.3,14.8,62,45.5l75.1,243.8h-62.8l-16.4-58.2L2444,550
		l-16.4,57.8h-62.8L2439.6,364z M2444,550l115.1-0.4l-48.2-167.4c-1.7-5.9-4.2-8.4-9.3-8.4c-4.6,0-7.6,2.5-9.3,8.4L2444,550z"/>
	<path class="st2" d="M2856.8,380.9h-83.5v226.9h-61.6V380.9h-83.5V324h228.6V380.9z"/>
	<g id="E">
		<rect x="2889" y="324.2" class="st2" width="207" height="55"/>
		<rect x="2889" y="439" class="st2" width="196.5" height="55"/>
		<rect x="2889" y="553.7" class="st2" width="207" height="55"/>
	</g>
	<path class="st2" d="M3128.4,466.1c0-82.2,64.5-147.6,147.2-147.6c49.3,0,96.6,26.1,117.7,70.4l-50.2,28.3
		c-13.9-24.5-35.8-40.1-70-40.1c-47.2,0-81.4,37.5-81.4,89s33.7,89,81.4,89c34.2,0,56.9-15.6,70-40.1l50.2,28.3
		c-21.1,44.3-68.3,70.4-117.7,70.4C3192.9,613.7,3128.4,548.3,3128.4,466.1z"/>
	<path class="st2" d="M3430.7,607.8V324h61.6v114.3h129.5V324h61.6v283.8h-61.6v-113h-129.5v113L3430.7,607.8L3430.7,607.8z"/>
</g>
<g id="A-icon">
	
		<linearGradient id="SVGID_1_" gradientUnits="userSpaceOnUse" x1="632.0051" y1="1416.7216" x2="520.9017" y2="1609.1584" gradientTransform="matrix(1 0 0 -1 0 1789)">
		<stop  offset="0" style="stop-color:#79CA15"/>
		<stop  offset="0.5166" style="stop-color:#48D669"/>
		<stop  offset="1" style="stop-color:#1DE0B3"/>
	</linearGradient>
	<path class="st3" d="M506.5,239.4c7.1-21.2,14.2-42.2,21.4-63.6c19.8,6.4,37.1,16.1,51.8,30.1c11.7,11,20.1,24.2,26.3,39
		c12.1,28.8,24.8,57.3,37,86c9,21.2-3.3,43.4-25.9,47.3c-14.8,2.6-30-5.8-36.4-20.5c-11.9-27.1-24.1-54-35-81.5
		c-7-17.6-18.6-29.1-36.2-35.1c-0.6-0.2-1.3-0.4-1.9-0.7C507.4,240.3,507.2,240,506.5,239.4z"/>
	
		<linearGradient id="SVGID_00000116925905917326701940000003909912068100611004_" gradientUnits="userSpaceOnUse" x1="409.6007" y1="1386.2523" x2="804.7819" y2="811.2939" gradientTransform="matrix(1 0 0 -1 0 1789)">
		<stop  offset="0" style="stop-color:#FECC0B"/>
		<stop  offset="0.9833" style="stop-color:#F88219"/>
		<stop  offset="1" style="stop-color:#F88119"/>
	</linearGradient>
	<path style="fill:url(#SVGID_00000116925905917326701940000003909912068100611004_);" d="M482.5,924.8c0-22.9,0-45.1,0-67.8
		c2-0.1,3.9-0.2,5.9-0.3c55.8-0.9,110.1-10.3,162.2-30.8c48.8-19.2,92.4-46.3,127.4-85.8c26.2-29.6,44.5-63.2,50-102.8
		c8.7-62.3-13.7-111.6-64.3-148c-27.7-19.9-59.3-28.9-93.3-30c-17-0.6-34-1.3-50.9,1.7c-36.6,6.7-68.7,22.9-98.1,45.2
		c-42.9,32.6-75.2,74-100.9,120.9c-8.5,15.5-16.2,31.4-23.2,47.6c-18.7,43-60.6,67.5-107.6,62.2c-43.5-4.9-79.6-39.7-87.3-84.3
		c-3.5-20.1-0.6-39.4,7.4-58.2c36.3-86.1,72.6-172.2,108.8-258.4c11.9-28.2,24-56.4,35.7-84.8c28-67.7,104.3-98.1,170.7-76.3
		c1.1,0.4,2.1,0.8,3.5,1.4c-7.5,21.2-14.9,42.2-22.4,63.5c-4.3-0.9-8.5-2-12.7-2.7c-32.5-5.6-64.8,12.3-77.3,42.4
		c-47,113.2-95,226.1-142.6,339c-3.8,9-5.8,18-2.6,27.7c4.5,13.5,16.4,22.6,30.6,23.5c13.7,0.8,26.4-7.4,32.8-20.5
		c10.2-21,19.8-42.3,31.2-62.6c30.7-54.3,69.7-101.7,120.5-138.7c36.8-26.9,77.3-45.8,122.5-53.7c19.5-3.4,39-4,58.8-3.1
		c20.9,1,41.7,2.6,61.8,8.5c80.8,23.7,136.9,73.8,161.1,155.6c15.7,52.8,9,104.8-12.7,154.8c-24.1,55.7-63.8,98.4-113.2,132.5
		c-55.7,38.1-117.4,61.3-183.4,73.4c-30.6,5.6-61.5,8.3-92.5,8.8C486.6,924.8,484.8,924.8,482.5,924.8z"/>
	
		<linearGradient id="SVGID_00000057147484116473462580000012172181383209808017_" gradientUnits="userSpaceOnUse" x1="721.5352" y1="1068.4187" x2="544.2228" y2="1375.5325" gradientTransform="matrix(1 0 0 -1 0 1789)">
		<stop  offset="0" style="stop-color:#00C8A9"/>
		<stop  offset="1" style="stop-color:#00C9E5"/>
	</linearGradient>
	<path style="fill:url(#SVGID_00000057147484116473462580000012172181383209808017_);" d="M522.7,433.6c13.3,2,22.6,9.1,28,21.4
		c28.1,64.4,56.2,128.9,84.4,193.3c8.8,20.2,34.5,26.3,51.6,12.4c10.9-8.9,14.2-23.9,8-38.1c-11.5-26.7-23.2-53.3-34.8-80
		c-3.9-9-7.9-17.9-11.7-27c-7.3-17.8,0.9-37.8,18.4-45.5c17.4-7.6,38,0.3,45.7,17.9c15.8,35.9,31.7,71.8,47,107.9
		c20.8,49.1-0.8,106.9-48.4,130.6c-48.4,24.2-107.7,7.1-134.1-39.6c-9.4-16.6-16.2-34.6-23.8-52.1c-21.8-49.8-43.5-99.6-65.2-149.4
		c-10.9-25,0.8-47,27.4-51.9c0.2,0,1.8-0.2,3.5-0.1C520.4,433.4,522.2,433.5,522.7,433.6z"/>
	
		<linearGradient id="SVGID_00000112594036631773698500000016069066228250389690_" gradientUnits="userSpaceOnUse" x1="406.8535" y1="815.892" x2="83.5656" y2="1375.8433" gradientTransform="matrix(1 0 0 -1 0 1789)">
		<stop  offset="0" style="stop-color:#FC5F59"/>
		<stop  offset="1" style="stop-color:#F93680"/>
	</linearGradient>
	<path style="fill:url(#SVGID_00000112594036631773698500000016069066228250389690_);" d="M60.3,432.7c2.1,0.5,4.2,0.9,6.3,1.5
		c15.6,4.2,25.4,17.2,25.5,34.6c0.2,36.2,5.1,71.7,15.2,106.5c39.6,135.9,148.1,238.9,285.9,271.3c29.3,6.9,59.1,9.8,89.2,10.2
		c17,0.2,30.9,12.9,33.1,29.7c2.1,16.4-8.2,32.2-24.3,36.7c-3.8,1.1-7.9,1.5-11.8,1.5c-182.1-0.9-346.1-109.3-418.1-276.2
		c-20.8-48.1-33-98.4-36.2-150.8c-0.6-9.6-1-19.3-1-29c-0.1-19,10.7-31.7,29.3-35.3c0.6-0.1,1.2-0.5,1.8-0.7
		C56.9,432.7,58.6,432.7,60.3,432.7z"/>
	
		<linearGradient id="SVGID_00000143618880164672074880000008471202876585501370_" gradientUnits="userSpaceOnUse" x1="882.2027" y1="1270.2079" x2="558.8642" y2="1830.2466" gradientTransform="matrix(1 0 0 -1 0 1789)">
		<stop  offset="0" style="stop-color:#1FF1FD"/>
		<stop  offset="0.2235" style="stop-color:#20EDFD"/>
		<stop  offset="0.4332" style="stop-color:#25E2FD"/>
		<stop  offset="0.6376" style="stop-color:#2CCFFD"/>
		<stop  offset="0.8373" style="stop-color:#36B4FD"/>
		<stop  offset="1" style="stop-color:#4199FD"/>
	</linearGradient>
	<path style="fill:url(#SVGID_00000143618880164672074880000008471202876585501370_);" d="M902.2,499.1c-4-1.6-8.2-2.7-11.9-4.9
		c-12.3-7.2-16.7-18.7-16.7-32.4c-0.2-44.1-7.7-86.9-22.7-128.3c-23.7-65.6-62.8-120.5-115.6-166.2C681.7,121,619.9,92.8,550.5,80.9
		c-21.5-3.7-43.6-4.4-65.5-5.7c-19.6-1.1-34.6-14.7-35-33.1c-0.3-19.3,14.4-34.6,33.9-34.7c45-0.2,89.1,6.3,132.2,19.3
		C697.8,51.5,768,95.2,824.6,159.1c57.7,65.1,95.7,140.5,110,226.7c3.9,23.3,4.8,47.2,6.8,70.8c1.6,19.1-4,35.4-28.2,42.4
		C909.5,499.1,905.9,499.1,902.2,499.1z"/>
	
		<linearGradient id="SVGID_00000142143127499348048890000003324496344157073560_" gradientUnits="userSpaceOnUse" x1="83.6206" y1="1270.6381" x2="406.5811" y2="1830.0217" gradientTransform="matrix(1 0 0 -1 0 1789)">
		<stop  offset="0" style="stop-color:#F255C7"/>
		<stop  offset="1" style="stop-color:#BA54EE"/>
	</linearGradient>
	<path style="fill:url(#SVGID_00000142143127499348048890000003324496344157073560_);" d="M24.1,453.4
		c3.5-106.1,38.1-200.6,106.4-282C196,93.3,278.9,42.7,378.2,19.2c33.5-7.9,67.5-11.8,102-11.8c19.8,0,34.9,14.3,35.3,33.2
		c0.4,19-14.6,34.5-34.4,34.7c-23.1,0.3-46,1.8-68.6,6.2c-117.8,22.8-207.4,85.9-268.4,188.9C109.7,328.5,93,392,92.2,459.5
		c-0.1,9.2-1.4,17.9-7.2,25.4c-8.9,11.5-23.8,16.1-37.6,11.7c-13.6-4.4-23-17.1-23.3-31.7C24.1,461.1,24.1,457.2,24.1,453.4z"/>
	<circle class="st9" cx="482.8" cy="41.4" r="33.9"/>
	<circle class="st10" cx="58" cy="465.7" r="33.9"/>
	<circle class="st11" cx="482.8" cy="890.8" r="33.9"/>
	<circle class="st12" cx="829.6" cy="506.3" r="33.9"/>
	
		<ellipse transform="matrix(0.3162 -0.9487 0.9487 0.3162 155.8254 630.7966)" class="st13" cx="515.5" cy="207.3" rx="33.9" ry="33.9"/>
</g>
</svg>
