<?xml version="1.0" encoding="utf-8"?>
<!-- Generator: Adobe Illustrator 26.3.1, SVG Export Plug-In . SVG Version: 6.00 Build 0)  -->
<svg version="1.1" id="Layer_2" xmlns="http://www.w3.org/2000/svg" xmlns:xlink="http://www.w3.org/1999/xlink" x="0px" y="0px"
	 viewBox="0 0 684 434.6" style="enable-background:new 0 0 684 434.6;" xml:space="preserve">
<style type="text/css">
	.st0{fill:#0F0064;}
	.st1{fill:#FFB200;}
	.st2{fill:#D58F2F;}
	.st3{fill:#EE1C25;}
	.st4{fill:#A40000;}
	.st5{fill:#092C99;}
</style>
<g>
	<path class="st0" d="M3.7,386.7c0-25.3,20.6-46.5,47.7-46.5c27.6,0,47.9,19.9,47.9,46.5V431h-24v-10.3
		c-6.2,7.8-15.8,12.6-27.9,12.6C21.6,433.3,3.7,412.3,3.7,386.7z M74,386.9c0-12.5-9.6-22.8-22.6-22.8s-22.4,10.3-22.4,22.8
		c0,12.5,9.4,22.8,22.4,22.8S74,399.3,74,386.9z"/>
	<path class="st0" d="M183.4,383.7v-40.8h25.3v43.8c0,25.8-15.3,46.6-44.9,46.6c-29.4,0-44.7-20.8-44.7-46.6v-43.8h25.3v40.9
		c0,13.5,6.4,25.1,19.4,25.1C176.9,408.9,183.4,397.4,183.4,383.7z"/>
	<path class="st0" d="M224.9,413.6l18.7-10.5c3.7,7.1,9.6,10.1,18.5,10.1c8.2,0,13.3-3.2,13.3-8.4c0-14.2-48.4-2-48.4-36
		c0-15.8,13.9-28.3,35.6-28.3c18.9,0,30.3,8.9,35.6,19l-18.7,10.5c-2.8-6.4-9.3-9.4-16.4-9.4c-6.2,0-10.9,3-10.9,7.7
		c0,14.2,48.4,2.8,48.4,36c0,17.8-17.3,29.2-37.4,29.2C245,433.5,232.2,426.7,224.9,413.6z"/>
	<path class="st0" d="M318.7,314.1c0-8.5,7.1-15.7,15.7-15.7c8.5,0,15.5,7.1,15.5,15.7c0,8.7-6.9,15.7-15.5,15.7
		C325.9,329.7,318.7,322.8,318.7,314.1z M347,342.9V431h-25.3v-88.1H347z"/>
	<path class="st0" d="M397,390.1V431h-25.3v-44c0-25.6,15.1-46.6,45.9-46.6c30.8,0,46.3,20.8,46.3,46.6v44h-25.3v-40.9
		c0-13.5-6.6-25.1-21-25.1C403.5,365,397,376.5,397,390.1z"/>
	<path class="st0" d="M480.7,386.9c0-25.6,20.8-46.6,47.3-46.5c16.9,0.2,32.6,7.8,40.6,24.9l-20.8,11.4c-3.9-7.7-11-12.5-19.8-12.5
		c-12.6,0-22.1,10.1-22.1,22.6c0,12.5,9.4,22.6,22.1,22.6c8.7,0,15.8-4.8,19.8-12.5l20.8,11.4c-8,17.1-23.7,24.7-40.6,24.9
		C501.5,433.5,480.7,412.3,480.7,386.9z"/>
	<path class="st0" d="M587.3,431V302.3h25.3v45.9c6.6-4.8,15.3-7.8,24.9-7.8c26.9,0,40.9,17.1,40.9,44.9V431l-25.3-0.2v-43.1
		c0-12.5-6.8-23.5-19.6-23.5c-12.6,0-21,10-21,23.9V431H587.3z"/>
</g>
<g id="Yellow">
	<polygon class="st1" points="423.6,57.8 458.1,0.6 544.4,142.1 	"/>
	<polygon class="st2" points="423.6,57.8 432.1,43.7 544.4,142.1 	"/>
</g>
<g id="Red_00000104698144585639020330000004163819435212660376_">
	<polygon class="st3" points="285.8,217.9 198.7,279.7 153.1,141.6 	"/>
	<polygon class="st4" points="285.8,217.9 265.7,232.2 153.1,141.6 	"/>
</g>
<polygon id="Blue" class="st5" points="481.9,330.6 153.1,141.6 348.6,5.4 544.4,142.1 "/>
</svg>
