<svg xmlns="http://www.w3.org/2000/svg" id="Logo_AMP_Primary_No_Strap" data-name="Logo / AMP / Primary No Strap" width="485.41" height="50.21" viewBox="0 0 485.41 50.21"><path id="Path_166" data-name="Path 166" d="M155.14,45.87,137.25,95.23H146l3.73-10.93H169l3.73,10.93h8.92l-17.8-49.36Zm-2.69,30.6,7-20.3,6.91,20.3Z" transform="translate(-45.83 -45.87)" fill="#1b2064"></path><path id="Path_167" data-name="Path 167" d="M206.86,77c0,7.9-3.59,11.71-8.22,11.71-4.35,0-7.19-2.89-7.19-8.53V60h-8.08V81.34c0,9.37,4.77,14.73,12.85,14.73,5.05,0,9.26-2.82,10.92-6.06l.9,5.22H215V60h-8.09Z" transform="translate(-45.83 -45.87)" fill="#1b2064"></path><path id="Path_168" data-name="Path 168" d="M221.25,81.28h0v0Z" transform="translate(-45.83 -45.87)" fill="#1b2064"></path><path id="Path_169" data-name="Path 169" d="M257.3,59.13c-10.36,0-18.17,7.82-18.17,18.47s7.81,18.47,18.17,18.47,18.18-7.82,18.18-18.47S267.74,59.13,257.3,59.13Zm0,29.61c-5.73,0-10-4.65-10-11.14s4.29-11.14,10-11.14,9.95,4.58,9.95,11.14S263,88.74,257.3,88.74Z" transform="translate(-45.83 -45.87)" fill="#1b2064"></path><path id="Path_170" data-name="Path 170" d="M318.51,59.13a12.54,12.54,0,0,0-10.85,6.06,10.3,10.3,0,0,0-10-6.06,11.94,11.94,0,0,0-10.44,6.06L286.38,60h-6.91V95.23h8.08V78.59c0-8.25,3.59-12.06,7.74-12.06,3.52,0,5.87,2.47,5.87,7.68v21h8.09v-17c0-7.89,3.52-11.7,7.74-11.7,3.52,0,5.87,2.47,5.87,7.68v21h8.08V73.3C330.94,64,325.9,59.13,318.51,59.13Z" transform="translate(-45.83 -45.87)" fill="#1b2064"></path><path id="Path_171" data-name="Path 171" d="M362.38,64.13a13.65,13.65,0,0,0-10.92-5c-9,0-16.72,7.33-16.72,18.47,0,10.72,7.26,18.47,16.52,18.47,5.59,0,9.46-2.68,11.12-5.15l1,4.31h7.11V60h-7.32ZM353,88.81c-5.8,0-10-4.65-10-11.21s4.21-11.21,10-11.21,9.95,4.51,9.95,11.21S358.72,88.81,353,88.81Z" transform="translate(-45.83 -45.87)" fill="#1b2064"></path><path id="Path_172" data-name="Path 172" d="M412.28,59.13C402,59.13,395,66.81,395,77.67c0,10.65,6.7,18.4,17.34,18.4,7.88,0,13.2-3.81,15.76-9.38l-6.71-3.17a9,9,0,0,1-8.56,5.29c-5.12,0-9.06-2.68-9.88-9h26a15.652,15.652,0,0,0,.28-3.17C429.28,67.23,423.48,59.13,412.28,59.13Zm-9.19,14.8c1-5.64,4.91-8,9.19-8,4.63,0,8.23,2.82,8.85,8Z" transform="translate(-45.83 -45.87)" fill="#1b2064"></path><path id="Path_173" data-name="Path 173" d="M229.31,81.28h0V66.74h7.6V60h-7.6V48.83l-8.08,1.84v29.2h0v1.41c.53,9.36,7.3,14.23,16.52,14.7v-7.2C233,88.54,229.61,86.68,229.31,81.28Z" transform="translate(-45.83 -45.87)" fill="#1b2064"></path><path id="Path_174" data-name="Path 174" d="M376.6,81.28h0v0Z" transform="translate(-45.83 -45.87)" fill="#1b2064"></path><path id="Path_175" data-name="Path 175" d="M384.65,81.28h0V66.74h7.6V60h-7.6V48.83l-8.08,1.84v29.2h0v.24a1.8,1.8,0,0,0,0,.23v.94c.52,9.36,7.3,14.23,16.52,14.7v-7.2C388.3,88.54,385,86.68,384.65,81.28Z" transform="translate(-45.83 -45.87)" fill="#1b2064"></path><path id="Path_176" data-name="Path 176" d="M436,45.89h16c9.58,0,15.34,6.2,15.34,14.31,0,8.38-6.32,14.52-15.55,14.52h-7.16V95.23H436ZM451.81,67a6.58,6.58,0,0,0,6.94-6.62c0-3.53-2.5-6.63-6.94-6.63h-7.09V67Z" transform="translate(-45.83 -45.87)" fill="#1b2064"></path><path id="Path_177" data-name="Path 177" d="M471.85,60h6.95l.76,4.87a9.9,9.9,0,0,1,9.24-5.71,11.89,11.89,0,0,1,5.28,1.2l-1.74,8.39a10,10,0,0,0-5.07-1.34c-4.44,0-7.29,3.31-7.29,9.44v18.4h-8.13Z" transform="translate(-45.83 -45.87)" fill="#1b2064"></path><path id="Path_178" data-name="Path 178" d="M494.71,77.61c0-10.65,7.85-18.47,18.27-18.47S531.24,67,531.24,77.61,523.46,96.08,513,96.08,494.71,88.25,494.71,77.61Zm28.27,0c0-6.56-4.24-11.14-10-11.14s-10.07,4.58-10.07,11.14,4.3,11.14,10.07,11.14S523,84.09,523,77.61Z" transform="translate(-45.83 -45.87)" fill="#1b2064"></path><path id="Path_179" data-name="Path 179" d="M104.27,47.84c-14.48,0-21.13,14.1-22.67,21.69-.3,1.13-3.94,13.93-12.94,13.93A12.84,12.84,0,0,1,55.83,70.64a5,5,0,0,1-10,0,22.82,22.82,0,0,0,22.8,22.79c17.21,0,22.44-20.74,22.65-21.62v-.2c.12-.56,2.92-13.8,12.92-13.8a5,5,0,1,0,0-10Z" transform="translate(-45.83 -45.87)" fill="#eb5f88"></path><path id="Path_180" data-name="Path 180" d="M69,47.87h-.29a22.83,22.83,0,0,0-22.8,22.8,5,5,0,0,0,10,0A12.83,12.83,0,0,1,68.58,57.82h.19c7.6,0,11.38,9.11,12.55,12.63.15-.47.24-.8.28-.94a33.39,33.39,0,0,1,4.76-11.35C82.89,53,77.37,47.94,69,47.87Z" transform="translate(-45.83 -45.87)" fill="#255ee5"></path><path id="Path_181" data-name="Path 181" d="M104.27,93.43a5,5,0,1,1-.13-10c-8.59-.19-11.77-10.19-12.5-13-.18.66-.27,1.09-.29,1.18a.662.662,0,0,0,0,.2,39.33,39.33,0,0,1-5,11.14c3.65,5.59,9.47,10.5,18,10.5h.34Z" transform="translate(-45.83 -45.87)" fill="#255ee5"></path><path id="Path_182" data-name="Path 182" d="M104.27,47.84a5,5,0,1,1,0,10,12.83,12.83,0,1,1,0,25.65,5,5,0,1,0,0,10,22.8,22.8,0,1,0,0-45.6Z" transform="translate(-45.83 -45.87)" fill="#5ae8ce"></path></svg>